<svg width="95" height="70" viewBox="0 0 95 70" fill="none" xmlns="http://www.w3.org/2000/svg">
<path d="M26.3593 39.6296C27.6246 36.7525 34.0721 25.8438 34.0721 23.9258C34.0721 23.2664 33.831 22.5472 33.4996 22.5472C32.9573 22.5472 28.1067 30.5789 24.7926 38.5507C23.3164 38.7905 21.9606 38.9103 20.9363 38.9703C21.5991 37.5317 22.2921 36.1831 22.985 34.8945L23.8285 33.3361C26.2387 28.8708 28.3477 25.7839 28.3477 23.9258C28.3477 23.2664 28.1067 22.5472 27.7753 22.5472C26.8412 22.5472 20.2132 35.434 19.0081 38.9703C17.8331 39.1202 16.2967 39.4498 15.1518 39.8095C16.869 36.2131 17.5619 34.8345 18.044 33.9355C20.3639 29.4701 22.4728 26.3832 22.4728 24.3454C22.4728 23.656 22.2317 22.9368 21.8703 22.9368C21.1773 22.9368 17.4716 29.9496 15.5435 34.0853C13.8562 37.7416 13.7357 38.251 13.555 38.7306C13.2537 39.5397 13.2537 39.9293 13.5249 40.4388C13.7357 40.8283 13.9165 41.2779 14.1576 41.5476C14.519 41.9973 14.8505 41.9973 15.4229 41.8474C17.1101 41.3978 20.394 40.6785 21.7196 40.6486C23.2561 40.6186 24.401 40.4987 25.3952 40.4388C25.9676 40.3489 26.1183 40.1691 26.3593 39.6296Z" fill="#71B639"/>
<path d="M45.6713 24.7949C46.0329 24.8549 46.0931 24.645 46.0027 24.4053C45.6412 23.4164 44.9784 22.9069 43.713 22.9369C42.0259 22.9668 38.7118 23.8359 36.2112 23.686C35.9099 23.6561 35.8195 23.776 35.8798 24.0457C36.0605 24.6751 36.392 25.2744 37.1452 25.5741C34.6144 29.4701 31.6017 35.0443 30.2157 38.7306C29.9145 39.5397 29.9145 39.9293 30.1856 40.4389C30.3966 40.8284 30.5773 41.2779 30.8183 41.5476C31.1798 41.9973 31.5112 41.9973 32.0837 41.8474C33.7708 41.3979 37.0548 40.6186 38.7419 40.6486C39.1034 40.6486 39.1336 40.4687 39.0432 40.199C38.7118 39.3 37.9586 38.8205 36.4823 38.8804C35.2471 38.9404 33.2587 39.3599 31.8125 39.8095C32.4452 38.4009 33.2587 36.7526 34.1324 35.0743C35.8195 34.6548 38.0791 34.2352 39.706 34.2352C40.0977 34.2352 40.0977 34.0554 40.0072 33.7856C39.706 32.8566 39.0432 32.3771 37.5368 32.4371C36.9945 32.467 36.2112 32.527 35.3978 32.6768C36.8741 30.0096 38.3503 27.4023 39.5554 25.604C41.3932 25.3044 43.5021 24.765 45.6713 24.7949Z" fill="#71B639"/>
<path d="M50.2139 35.7699C52.1925 31.9781 54.2897 28.18 55.4027 26.2334C55.9712 25.234 56.2959 24.3964 56.4458 23.6973C58.0999 23.9625 58.747 24.7774 58.747 26.4433C58.747 30.775 54.5144 35.0314 50.2139 35.7699ZM45.1594 32.6768C45.1594 28.7605 50.2644 24.1216 54.2854 23.64C52.3202 26.8699 49.5978 31.9253 47.7555 35.7996C45.9628 35.5226 45.1594 34.5303 45.1594 32.6768ZM60.8861 27.1025C60.8861 25.129 59.1342 23.2398 56.5336 23.1225C56.5869 22.5094 56.4895 22.025 56.3066 21.6482C56.1259 21.2886 55.8548 21.2285 55.5836 21.6182C55.4019 21.8793 55.2024 22.1794 54.989 22.5117C54.7026 22.4759 54.3256 22.4573 53.806 22.4573C48.5638 22.4573 42.8696 26.3533 42.8696 32.1973C42.8696 34.1792 44.0113 36.1183 47.3344 36.6977C46.8053 37.8444 46.3747 38.8526 46.0934 39.6296C45.4306 41.4578 45.792 42.5066 46.2139 42.9563C46.4549 43.2259 46.5754 43.1959 46.6959 42.8963C47.4577 41.1938 48.5124 39.0634 49.6433 36.87C56.2398 36.8178 60.8861 32.3166 60.8861 27.1025Z" fill="#71B639"/>
<path d="M60.9766 35.9434C61.0369 38.4009 62.2119 40.2589 63.5676 40.9783C65.1945 41.8474 67.7252 41.8773 69.8642 40.349C71.1297 39.4498 73.0578 37.2022 72.3046 35.1942C72.1539 34.8046 71.8226 34.8046 71.672 35.1342C69.3823 39.5997 66.1887 41.6076 64.2606 40.0492C62.7843 38.8505 62.483 34.4151 65.1342 30.0395C67.8458 25.5742 72.4251 23.1466 73.2687 24.0457C73.9616 24.765 72.8771 26.4732 72.3951 28.0615C71.9431 29.56 72.4251 30.489 73.1181 30.9385C73.4796 31.1784 73.6905 30.9985 73.7809 30.7588C74.1123 29.8897 74.5341 28.7209 74.9861 27.7918C75.4379 26.8628 75.5284 26.0236 75.2572 25.1546C75.0161 24.4053 74.3232 23.5362 73.6603 22.9668C72.6962 22.1276 71.22 22.2475 69.5931 22.8769C66.2188 24.1656 60.856 29.59 60.9766 35.9434Z" fill="#71B639"/>
<path d="M52.1332 44.5763C50.4569 46.8603 50.0519 47.894 49.5846 49.5619C49.2669 50.6804 49.4051 51.248 49.73 51.5337C49.8818 51.6681 50.0425 51.6221 50.0946 51.4748C51.4546 48.0762 52.0149 47.5549 52.6848 46.1803C53.0831 45.3631 52.8737 44.962 52.6879 44.6134C52.5248 44.2995 52.3029 44.3495 52.1332 44.5763Z" fill="#71B639"/>
<path d="M76.4529 44.1506C77.0155 43.6651 77.9437 43.4629 78.0821 44.0304C78.1636 44.3494 78.1105 44.8029 78.003 45.3678C77.8946 45.915 77.5427 46.8195 77.2687 47.3407C76.3747 49.0534 75.1716 49.7591 74.5747 49.3823C74.0199 49.021 74.2212 47.3517 74.9907 45.9349C75.3753 45.2266 75.9289 44.5976 76.4529 44.1506ZM66.6406 50.0956C65.8447 50.1277 66.0096 48.5326 66.992 46.9224C68.0117 45.2559 69.4253 43.9967 70.0809 44.0098C70.6752 44.0265 70.5622 45.15 69.4035 47.2035C68.4642 48.8469 67.4773 50.0613 66.6406 50.0956ZM81.0991 39.0153C81.716 38.4184 81.8403 37.4744 81.6908 37.0516C81.616 36.8401 81.4938 36.8478 81.3816 37.0168C80.7695 38.0096 79.762 38.577 78.9119 39.0446C76.2845 40.4866 75.1332 42.0161 73.5815 45.5825C73.202 46.3422 72.9901 47.1134 73.0165 47.8081C72.3804 48.9119 71.4932 49.9043 70.7661 49.9813C70.0755 50.0605 70.047 49.288 70.4928 48.2517C70.9217 47.2703 71.8552 45.8613 72.2525 45.0261C72.6848 44.0986 72.473 43.3375 72.1469 43.0338C71.9939 42.8813 71.8331 42.9275 71.6645 43.1722C71.4586 43.4732 71.2379 43.8652 71.0002 44.3122C70.9968 43.6102 70.5517 43.0439 69.6754 43.0988C68.6564 43.1626 67.0978 44.0706 65.5812 46.2906C64.8981 47.2913 64.6183 48.2873 64.6798 49.0796C64.1473 49.8195 63.5645 50.373 63.02 50.4307C62.2275 50.5164 62.1085 49.9296 62.51 48.842L63.8792 44.9387C64.1043 44.2943 64.0407 43.6141 63.7146 43.3103C63.5402 43.1412 63.1961 43.1987 63.0082 43.4627L61.0537 46.5203C59.1003 49.5959 58.17 50.7346 57.6402 50.7679C57.3841 50.784 57.2729 50.4986 57.2898 50.1036C57.5181 49.825 57.6963 49.5408 57.8332 49.2972C58.1107 48.8297 58.124 48.3966 58.0085 48.1878C57.8929 47.9789 57.7108 48.0083 57.6021 48.2314C57.5349 48.3742 57.4601 48.5215 57.3792 48.6701C57.1329 48.7488 56.8143 48.9738 56.7069 49.2779C56.6305 49.4858 56.5686 49.7089 56.5337 49.9283C56.0954 50.4493 55.6165 50.8235 55.1878 50.8136C54.409 50.7903 53.7736 49.8037 53.5989 48.338C55.7487 47.3931 56.6111 46.4746 57.2538 45.3179C57.6579 44.5902 57.2172 43.7716 56.6842 44.3991C55.4663 45.8441 54.2033 46.8957 52.5063 47.5602C52.127 47.71 52.0885 47.7484 52.1089 48.0714C52.2216 50.4952 53.4887 51.4423 54.9162 51.3708C55.6049 51.3353 56.1563 51.0938 56.5972 50.7684C56.7444 51.1045 57.0829 51.3251 57.7342 51.2842C58.8346 51.2152 60.0841 49.9485 61.6323 46.9343L61.7965 46.942C60.2224 50.1919 60.9358 51.1196 62.8106 51.0021C63.569 50.9546 64.3446 50.5269 64.9322 49.9527C65.2207 50.4548 65.7406 50.7465 66.4539 50.7017C67.432 50.6404 68.3071 49.9192 68.9125 49.1431C68.9659 49.986 69.5729 50.5242 70.6767 50.5091C71.6504 50.4948 72.6962 49.6922 73.2626 48.8151C73.3614 49.0141 73.489 49.2003 73.6532 49.3682C74.5274 50.2496 75.5508 50.2575 76.2709 49.9964C77.7504 49.4535 78.9817 47.5756 79.2508 46.0101C79.3402 45.4822 79.3117 45.3579 79.3231 45.2132C79.3636 43.9142 78.7443 43.8269 78.2404 43.3002C77.8021 42.8415 77.4455 42.7017 76.816 42.7772C76.3893 42.8292 75.9681 43.0022 75.5704 43.2568C76.7646 40.9647 79.9545 40.1584 81.0991 39.0153Z" fill="#71B639"/>
<path d="M29.9669 18.5313C30.0184 18.5417 30.0699 18.5522 30.1215 18.5627C30.3777 18.615 30.6409 18.5276 30.818 18.336C35.3486 13.4353 41.8438 10.3586 49.0487 10.3586C56.0145 10.3586 62.3171 13.2345 66.822 17.8542C67.0689 18.1074 67.4609 18.1455 67.7584 17.9538C67.7602 17.9527 67.762 17.9515 67.7637 17.9504C67.7973 17.9288 67.831 17.9072 67.8648 17.8856C68.2581 17.6341 68.3266 17.0874 68.0014 16.7532C63.2009 11.8209 56.4788 8.74996 49.0487 8.74996C41.3431 8.74996 34.3986 12.0526 29.5697 17.3092C29.1806 17.7329 29.4016 18.4167 29.9669 18.5313Z" fill="#71B639"/>
<path d="M65.6308 53.9365C65.6255 53.934 65.6202 53.9315 65.6148 53.929C65.3321 53.7955 64.9993 53.8403 64.7575 54.0381C60.4794 57.5374 55.0067 59.6414 49.0487 59.6414C38.4168 59.6414 29.3279 52.9441 25.8215 43.5679C25.6762 43.1794 25.2571 42.9662 24.8562 43.0789C24.8508 43.0804 24.8456 43.0819 24.8404 43.0833C24.3914 43.2092 24.1422 43.6889 24.3047 44.1239C28.0394 54.1137 37.7215 61.25 49.0487 61.25C55.4011 61.25 61.2363 59.0054 65.7953 55.2718C66.2484 54.9008 66.1609 54.187 65.6308 53.9365Z" fill="#71B639"/>
</svg>
